<?xml version="1.0" encoding="iso-8859-1"?>
<!-- Generator: Adobe Illustrator 19.0.0, SVG Export Plug-In . SVG Version: 6.00 Build 0)  -->
<svg version="1.1" id="Capa_1" xmlns="http://www.w3.org/2000/svg" xmlns:xlink="http://www.w3.org/1999/xlink" x="0px" y="0px"
	 viewBox="0 0 441.469 441.469" style="enable-background:new 0 0 441.469 441.469;" xml:space="preserve">
<polygon style="fill:#00BBD3;" points="321.306,92.996 222.041,0 222.041,92.996 "/>
<path style="fill:#4DCFE0;" d="M300.931,207.935c7.314,0,14.106,0.522,20.375,2.09V92.996h-99.265V0H36.049
	C30.302,0,25.6,4.702,25.6,10.449v361.012c0,5.747,4.702,10.449,10.449,10.449h161.437c-9.404-16.718-14.106-36.049-14.106-56.424
	C183.38,260.702,236.147,207.935,300.931,207.935z"/>
<path style="fill:#D4E1F4;" d="M320.784,208.98c-0.522,0-1.567-0.522-2.09-0.522c-6.269-1.045-13.061-2.09-20.376-2.09
	c-64.784,0-117.551,52.767-117.551,117.551c0,20.376,4.702,39.706,14.106,56.424c1.045,1.567,1.567,3.135,2.612,4.18
	c21.42,35.527,59.559,56.947,100.833,56.947c64.784,0,117.551-52.767,117.551-117.551
	C415.869,267.494,375.641,218.906,320.784,208.98z"/>
<path style="fill:#3A2C51;" d="M313.992,371.984v-32.392h32.392c8.882,0,15.673-6.792,15.673-15.673s-6.792-15.673-15.673-15.673
	h-32.392v-31.869c0-8.882-6.792-15.673-15.673-15.673c-8.882,0-15.673,6.792-15.673,15.673v31.869h-31.869
	c-8.882,0-15.673,6.792-15.673,15.673s6.792,15.673,15.673,15.673h31.869v32.392c0,8.882,6.792,15.673,15.673,15.673
	C307.2,387.657,313.992,380.865,313.992,371.984z"/>
<g>
</g>
<g>
</g>
<g>
</g>
<g>
</g>
<g>
</g>
<g>
</g>
<g>
</g>
<g>
</g>
<g>
</g>
<g>
</g>
<g>
</g>
<g>
</g>
<g>
</g>
<g>
</g>
<g>
</g>
</svg>
