<?xml version="1.0" encoding="utf-8"?>
<!-- Generator: Adobe Illustrator 22.1.0, SVG Export Plug-In . SVG Version: 6.00 Build 0)  -->
<svg version="1.1" id="Layer_1" xmlns="http://www.w3.org/2000/svg" xmlns:xlink="http://www.w3.org/1999/xlink" x="0px" y="0px"
	 viewBox="0 0 24 24" style="enable-background:new 0 0 24 24;" xml:space="preserve">
<style type="text/css">
	.st0{fill:none;}
</style>
<path class="st0" d="M12,29L-5,12L12-5l17,17L12,29z"/>
<path d="M5.1,12.5L12.6,5c1.5-1.5,3.9-1.7,5.5-0.4c1.9,1.5,1.9,4.3,0.3,5.9l-8.7,8.7c-0.9,0.9-2.4,1.1-3.4,0.3C5,18.6,5,16.9,6,15.9
	l7.4-7.4c0.4-0.4,1-0.4,1.4,0s0.4,1,0,1.4l-6.2,6.2c-0.3,0.3-0.3,0.8,0,1.1c0.3,0.3,0.8,0.3,1.1,0l6.1-6.1c0.9-0.9,1.1-2.4,0.3-3.4
	c-1-1.2-2.7-1.2-3.7-0.2L5,14.7c-1.5,1.5-1.7,3.9-0.4,5.5c1.5,1.8,4.3,1.9,5.9,0.3l8.7-8.7c2-2,2.4-5.3,0.5-7.5
	c-2.1-2.5-5.9-2.7-8.1-0.4L4,11.5c-0.3,0.3-0.3,0.8,0,1.1C4.3,12.8,4.8,12.8,5.1,12.5z"/>
</svg>
