<?xml version="1.0" encoding="utf-8"?>
<!-- Generator: Adobe Illustrator 22.1.0, SVG Export Plug-In . SVG Version: 6.00 Build 0)  -->
<svg version="1.1" id="Layer_1" xmlns="http://www.w3.org/2000/svg" xmlns:xlink="http://www.w3.org/1999/xlink" x="0px" y="0px"
	 viewBox="0 0 512 900" style="enable-background:new 0 0 512 900;" xml:space="preserve">
<style type="text/css">
	.st0{fill:#51B389;}
	.st1{fill:#43A37D;}
	.st2{fill:none;stroke:#43A37D;stroke-width:4;stroke-linecap:round;stroke-miterlimit:10;stroke-dasharray:9,12,9;}
</style>
<polygon class="st0" points="0,619.4 0,319 1,319 94.3,468.4 "/>
<polygon class="st1" points="0,848.4 0,548 1,548 94.3,697.4 "/>
<g>
	<polygon class="st0" points="392.6,161.1 287.3,198.6 244.1,172.3 244,171.5 	"/>
	<polygon class="st1" points="281.8,112.8 392.8,161.3 244,171.4 244,169.9 	"/>
</g>
<polygon class="st1" points="466.1,727.7 275.3,777.1 238.7,635.8 "/>
<path class="st2" d="M0,176c11.4,5.1,28.4,12.7,49,22c99.3,45,96,45.9,113,52c14.8,5.3,102.7,35.5,190-2c22.2-9.5,63.6-27.3,86-72
	c4.2-8.4,28-55.8,7-100c-24.3-51-91.4-66.9-140-57c-7.9,1.6-80.1,17.5-93,76c-7.4,33.9,9.2,62.8,15,72"/>
<path class="st2" d="M4.7,870.6c60.5-3.7,111.5-9.6,150.1-15c125.5-17.4,222.5-43.3,279-58.5c30.5-8.2,55.7-15.6,73.5-21"/>
</svg>
