<?xml version="1.0" encoding="utf-8"?>
<!-- Generator: Adobe Illustrator 22.1.0, SVG Export Plug-In . SVG Version: 6.00 Build 0)  -->
<svg version="1.1" id="Layer_1" xmlns="http://www.w3.org/2000/svg" xmlns:xlink="http://www.w3.org/1999/xlink" x="0px" y="0px"
	 viewBox="0 0 512 900" style="enable-background:new 0 0 512 900;" xml:space="preserve">
<style type="text/css">
	.st0{fill:#43A37D;}
	.st1{fill:#51B389;}
	.st2{opacity:0.9;fill:#51B389;enable-background:new    ;}
	.st3{fill:none;stroke:#43A37D;stroke-width:4;stroke-linecap:round;stroke-miterlimit:10;stroke-dasharray:9,10,9;}
</style>
<polygon class="st0" points="512,525.9 340.8,477.5 462.9,592.5 512,555.7 "/>
<polygon class="st1" points="512,498.1 495.8,477.9 341,477.7 512,525.8 "/>
<polygon class="st0" points="421.1,900 500.9,879.3 273.5,787.4 302.7,900 "/>
<polygon class="st0" points="364,10.6 182.7,61.2 329.7,75.5 364.3,12 "/>
<polygon class="st2" points="340,23.2 277.6,9.4 167.1,97.3 340.5,24.1 "/>
<path class="st3" d="M504.1,648.6c-67.4-9.8-122.2-24.7-162-37.5c-67-21.6-114.1-37.3-160.5-79.5c-23.1-21-55.2-51-63-99
	c-2.5-15.3-9.4-57.8,19.5-90c25.8-28.6,68.6-36.3,102-24c6.2,2.3,46.6,18,52.5,54c3.1,19-4.9,34.3-7.5,39
	c-21.3,39.2-74.6,40.5-78,40.5"/>
</svg>
	c-2.5-15.3-9.4-57.8,19.5-90c25.8-28.6,68.6-36.3,102-24c6.2,2.3,46.6,18,52.5,54c3.1,19-4.9,34.3-7.5,39
	c-21.3,39.2-74.6,40.5-78,40.5"/>
</svg>
